<svg xlink="http://www.w3.org/1999/xlink" viewBox="0 0 5000 5000" xmlns="http://www.w3.org/2000/svg" style="transform: scale(1);"><defs><filter id="goo"><feGaussianBlur in="SourceGraphic" stdDeviation="0" result="blur"></feGaussianBlur><feColorMatrix in="blur" type="matrix" values="1 0 0 0 0 0 1 0 0 0 0 0 1 0 0 0 0 0 19 -9" result="good"></feColorMatrix><feComposite in="SourceGraphic" in2="goo" operator="atop"></feComposite></filter><path d="M273,263C252,265 239,260 224,247L255,224C257,238 261,242 275,244Q289,255 273,263z" id="P0"></path><path d="M235,261L238,235L262,235L262,265L235,261z" id="P1"></path><path d="M245,275C230,269 223,253 227,239L253,225C260,241 264,249 270,265C264,272 255,276 245,275z" id="P2"></path><path d="M256,234L262,262L236,259L234,245L256,234z" id="P3"></path><path d="M226,261C221,244 230,228 245,223C254,222 262,224 270,232C276,238 278,246 277,255C258,263 246,265 226,261z" id="P4"></path><path d="M260,248L255,259L242,256L254,241L260,248z" id="P5"></path><path d="M276,243C278,259 269,273 252,277L223,252L250,223Q274,217 276,243z" id="P6"></path><path d="M241,244L244,241L258,243L250,261L241,244z" id="P7"></path><path d="M272,273C254,285 233,281 222,265Q211,222 256,219C257,235 261,237 277,233Q298,253 272,273z" id="P8"></path><path d="M235,245L256,235L260,238L248,266L235,245z" id="P9"></path><path d="M280,262C272,277 256,284 240,280C239,263 235,258 219,256L244,219C267,219 283,237 280,262z" id="P10"></path><path d="M239,244L252,237L263,252L247,263L239,244z" id="P11"></path><path d="M216,250C225,220 257,212 280,234L261,282L252,284C232,282 218,268 216,250z" id="P12"></path><path d="M236,263L257,232L264,237L263,264L236,263z" id="P13"></path></defs><rect id="RECT" width="5000" height="5000" fill="#111" data-darkreader-inline-fill="" style="--darkreader-inline-fill:#242729;"></rect><g id="group" fill="#FFD700" filter="" data-darkreader-inline-fill="" style="--darkreader-inline-fill:#b6a33d;"><use x="-160" y="-122" href="#P11"></use><use x="-146" y="71" href="#P0"></use><use x="-123" y="169" href="#P13"></use><use x="-208" y="321" href="#P13"></use><use x="-202" y="596" href="#P0"></use><use x="-157" y="849" href="#P7"></use><use x="-216" y="885" href="#P6"></use><use x="-141" y="1189" href="#P2"></use><use x="-181" y="1310" href="#P12"></use><use x="-109" y="1560" href="#P1"></use><use x="-124" y="1646" href="#P1"></use><use x="-197" y="1867" href="#P6"></use><use x="-119" y="2027" href="#P8"></use><use x="-139" y="2313" href="#P7"></use><use x="-172" y="2457" href="#P6"></use><use x="-138" y="2607" href="#P5"></use><use x="-192" y="2826" href="#P1"></use><use x="-174" y="2872" href="#P2"></use><use x="-166" y="3127" href="#P5"></use><use x="-91" y="3248" href="#P11"></use><use x="-103" y="3446" href="#P12"></use><use x="-129" y="3737" href="#P8"></use><use x="-88" y="3825" href="#P4"></use><use x="-81" y="4142" href="#P7"></use><use x="-155" y="4291" href="#P0"></use><use x="-150" y="4420" href="#P13"></use><use x="-233" y="4589" href="#P10"></use><use x="-189" y="4797" href="#P1"></use><use x="-213" y="4926" href="#P5"></use><use x="-91" y="5192" href="#P8"></use><use x="67" y="-76" href="#P12"></use><use x="63" y="-38" href="#P2"></use><use x="16" y="266" href="#P5"></use><use x="13" y="442" href="#P10"></use><use x="25" y="606" href="#P9"></use><use x="14" y="803" href="#P10"></use><use x="32" y="936" href="#P13"></use><use x="42" y="1142" href="#P4"></use><use x="109" y="1318" href="#P9"></use><use x="1" y="1411" href="#P6"></use><use x="-54" y="1676" href="#P6"></use><use x="32" y="1920" href="#P12"></use><use x="90" y="2058" href="#P9"></use><use x="32" y="2233" href="#P12"></use><use x="54" y="2407" href="#P7"></use><use x="-19" y="2646" href="#P10"></use><use x="-67" y="2754" href="#P6"></use><use x="58" y="2968" href="#P1"></use><use x="94" y="3131" href="#P12"></use><use x="-64" y="3285" href="#P11"></use><use x="-61" y="3513" href="#P12"></use><use x="-64" y="3645" href="#P1"></use><use x="42" y="3833" href="#P11"></use><use x="-43" y="3991" href="#P0"></use><use x="81" y="4203" href="#P7"></use><use x="-65" y="4451" href="#P9"></use><use x="-15" y="4609" href="#P11"></use><use x="34" y="4861" href="#P11"></use><use x="101" y="4976" href="#P6"></use><use x="12" y="5216" href="#P10"></use><use x="159" y="-88" href="#P9"></use><use x="291" y="-60" href="#P2"></use><use x="201" y="249" href="#P1"></use><use x="119" y="461" href="#P7"></use><use x="273" y="557" href="#P2"></use><use x="195" y="682" href="#P3"></use><use x="199" y="905" href="#P13"></use><use x="263" y="1112" href="#P5"></use><use x="222" y="1374" href="#P0"></use><use x="123" y="1494" href="#P0"></use><use x="260" y="1652" href="#P10"></use><use x="230" y="1854" href="#P8"></use><use x="272" y="1959" href="#P10"></use><use x="190" y="2202" href="#P6"></use><use x="299" y="2345" href="#P3"></use><use x="118" y="2560" href="#P6"></use><use x="246" y="2692" href="#P12"></use><use x="280" y="2883" href="#P0"></use><use x="282" y="3209" href="#P6"></use><use x="138" y="3379" href="#P13"></use><use x="122" y="3468" href="#P10"></use><use x="297" y="3742" href="#P8"></use><use x="138" y="3961" href="#P10"></use><use x="139" y="4016" href="#P2"></use><use x="283" y="4223" href="#P1"></use><use x="155" y="4388" href="#P5"></use><use x="295" y="4690" href="#P13"></use><use x="232" y="4724" href="#P9"></use><use x="290" y="4893" href="#P10"></use><use x="158" y="5227" href="#P10"></use><use x="398" y="-91" href="#P11"></use><use x="475" y="80" href="#P9"></use><use x="421" y="161" href="#P13"></use><use x="339" y="405" href="#P10"></use><use x="371" y="527" href="#P1"></use><use x="422" y="712" href="#P5"></use><use x="396" y="977" href="#P9"></use><use x="348" y="1149" href="#P4"></use><use x="424" y="1392" href="#P12"></use><use x="328" y="1572" href="#P0"></use><use x="330" y="1584" href="#P10"></use><use x="341" y="1917" href="#P13"></use><use x="395" y="1966" href="#P11"></use><use x="408" y="2168" href="#P0"></use><use x="459" y="2472" href="#P0"></use><use x="315" y="2644" href="#P13"></use><use x="393" y="2842" href="#P12"></use><use x="450" y="3016" href="#P9"></use><use x="449" y="3117" href="#P8"></use><use x="399" y="3236" href="#P13"></use><use x="423" y="3597" href="#P1"></use><use x="334" y="3752" href="#P9"></use><use x="458" y="3829" href="#P4"></use><use x="477" y="4099" href="#P1"></use><use x="377" y="4243" href="#P10"></use><use x="349" y="4436" href="#P5"></use><use x="426" y="4688" href="#P8"></use><use x="353" y="4763" href="#P8"></use><use x="371" y="4907" href="#P6"></use><use x="384" y="5196" href="#P0"></use><use x="657" y="-228" href="#P1"></use><use x="592" y="34" href="#P8"></use><use x="665" y="203" href="#P2"></use><use x="505" y="426" href="#P5"></use><use x="514" y="496" href="#P9"></use><use x="548" y="683" href="#P7"></use><use x="608" y="884" href="#P0"></use><use x="652" y="1044" href="#P7"></use><use x="556" y="1381" href="#P7"></use><use x="513" y="1543" href="#P2"></use><use x="539" y="1624" href="#P8"></use><use x="665" y="1851" href="#P8"></use><use x="567" y="2118" href="#P11"></use><use x="517" y="2177" href="#P8"></use><use x="532" y="2424" href="#P3"></use><use x="601" y="2613" href="#P12"></use><use x="579" y="2746" href="#P8"></use><use x="567" y="2945" href="#P6"></use><use x="622" y="3051" href="#P1"></use><use x="507" y="3305" href="#P13"></use><use x="543" y="3486" href="#P3"></use><use x="611" y="3781" href="#P2"></use><use x="595" y="3921" href="#P8"></use><use x="666" y="3999" href="#P10"></use><use x="609" y="4211" href="#P1"></use><use x="553" y="4455" href="#P5"></use><use x="512" y="4659" href="#P1"></use><use x="540" y="4738" href="#P9"></use><use x="614" y="4920" href="#P1"></use><use x="658" y="5069" href="#P5"></use><use x="696" y="-132" href="#P1"></use><use x="716" y="-58" href="#P4"></use><use x="826" y="195" href="#P2"></use><use x="819" y="475" href="#P1"></use><use x="834" y="632" href="#P12"></use><use x="698" y="692" href="#P11"></use><use x="691" y="1029" href="#P3"></use><use x="749" y="1107" href="#P2"></use><use x="768" y="1349" href="#P6"></use><use x="817" y="1536" href="#P7"></use><use x="782" y="1693" href="#P12"></use><use x="703" y="1772" href="#P0"></use><use x="785" y="2036" href="#P1"></use><use x="773" y="2256" href="#P12"></use><use x="847" y="2399" href="#P1"></use><use x="724" y="2645" href="#P3"></use><use x="828" y="2703" href="#P7"></use><use x="672" y="2916" href="#P10"></use><use x="792" y="3090" href="#P4"></use><use x="712" y="3352" href="#P9"></use><use x="836" y="3565" href="#P7"></use><use x="834" y="3771" href="#P5"></use><use x="680" y="3859" href="#P0"></use><use x="732" y="4103" href="#P7"></use><use x="718" y="4255" href="#P13"></use><use x="757" y="4459" href="#P12"></use><use x="784" y="4564" href="#P12"></use><use x="774" y="4824" href="#P10"></use><use x="688" y="5025" href="#P12"></use><use x="796" y="5223" href="#P9"></use><use x="876" y="-184" href="#P10"></use><use x="898" y="103" href="#P5"></use><use x="1026" y="145" href="#P10"></use><use x="1029" y="313" href="#P5"></use><use x="977" y="622" href="#P4"></use><use x="869" y="710" href="#P5"></use><use x="902" y="1010" href="#P11"></use><use x="966" y="1106" href="#P10"></use><use x="883" y="1216" href="#P10"></use><use x="1011" y="1490" href="#P6"></use><use x="962" y="1584" href="#P5"></use><use x="944" y="1862" href="#P3"></use><use x="858" y="2036" href="#P0"></use><use x="899" y="2221" href="#P8"></use><use x="928" y="2453" href="#P13"></use><use x="891" y="2681" href="#P3"></use><use x="882" y="2841" href="#P10"></use><use x="948" y="2909" href="#P0"></use><use x="998" y="3198" href="#P6"></use><use x="985" y="3339" href="#P13"></use><use x="916" y="3503" href="#P8"></use><use x="898" y="3746" href="#P6"></use><use x="883" y="3913" href="#P2"></use><use x="1014" y="4141" href="#P0"></use><use x="912" y="4302" href="#P9"></use><use x="1029" y="4406" href="#P13"></use><use x="1032" y="4523" href="#P10"></use><use x="909" y="4740" href="#P4"></use><use x="960" y="4930" href="#P1"></use><use x="885" y="5202" href="#P8"></use><use x="1143" y="-202" href="#P3"></use><use x="1114" y="-28" href="#P10"></use><use x="1166" y="252" href="#P3"></use><use x="1088" y="480" href="#P2"></use><use x="1180" y="618" href="#P11"></use><use x="1099" y="681" href="#P9"></use><use x="1093" y="886" href="#P3"></use><use x="1114" y="1060" href="#P6"></use><use x="1098" y="1344" href="#P9"></use><use x="1058" y="1407" href="#P6"></use><use x="1131" y="1669" href="#P4"></use><use x="1148" y="1784" href="#P6"></use><use x="1051" y="2025" href="#P10"></use><use x="1207" y="2256" href="#P12"></use><use x="1170" y="2497" href="#P6"></use><use x="1064" y="2528" href="#P11"></use><use x="1049" y="2835" href="#P0"></use><use x="1114" y="3007" href="#P0"></use><use x="1133" y="3163" href="#P0"></use><use x="1084" y="3244" href="#P6"></use><use x="1182" y="3545" href="#P1"></use><use x="1159" y="3621" href="#P3"></use><use x="1182" y="3914" href="#P5"></use><use x="1205" y="4046" href="#P0"></use><use x="1209" y="4261" href="#P10"></use><use x="1175" y="4394" href="#P3"></use><use x="1184" y="4652" href="#P0"></use><use x="1122" y="4731" href="#P5"></use><use x="1156" y="5002" href="#P8"></use><use x="1161" y="5099" href="#P5"></use><use x="1325" y="-241" href="#P4"></use><use x="1285" y="-2" href="#P3"></use><use x="1334" y="285" href="#P11"></use><use x="1266" y="445" href="#P10"></use><use x="1328" y="606" href="#P13"></use><use x="1387" y="743" href="#P7"></use><use x="1255" y="858" href="#P2"></use><use x="1288" y="1062" href="#P3"></use><use x="1364" y="1231" href="#P1"></use><use x="1255" y="1582" href="#P7"></use><use x="1397" y="1638" href="#P4"></use><use x="1273" y="1823" href="#P8"></use><use x="1265" y="2047" href="#P0"></use><use x="1353" y="2143" href="#P8"></use><use x="1381" y="2453" href="#P5"></use><use x="1365" y="2540" href="#P6"></use><use x="1293" y="2790" href="#P7"></use><use x="1254" y="2917" href="#P12"></use><use x="1396" y="3211" href="#P5"></use><use x="1308" y="3235" href="#P13"></use><use x="1276" y="3599" href="#P9"></use><use x="1260" y="3661" href="#P8"></use><use x="1237" y="3834" href="#P11"></use><use x="1249" y="4038" href="#P3"></use><use x="1351" y="4317" href="#P10"></use><use x="1227" y="4363" href="#P4"></use><use x="1280" y="4524" href="#P11"></use><use x="1392" y="4712" href="#P4"></use><use x="1356" y="5009" href="#P2"></use><use x="1376" y="5136" href="#P3"></use><use x="1514" y="-96" href="#P10"></use><use x="1489" y="-45" href="#P11"></use><use x="1501" y="225" href="#P5"></use><use x="1511" y="381" href="#P0"></use><use x="1472" y="656" href="#P1"></use><use x="1479" y="685" href="#P11"></use><use x="1461" y="1005" href="#P6"></use><use x="1493" y="1041" href="#P9"></use><use x="1420" y="1329" href="#P7"></use><use x="1449" y="1540" href="#P4"></use><use x="1531" y="1651" href="#P9"></use><use x="1507" y="1833" href="#P5"></use><use x="1449" y="2007" href="#P6"></use><use x="1509" y="2217" href="#P6"></use><use x="1574" y="2356" href="#P12"></use><use x="1429" y="2625" href="#P7"></use><use x="1411" y="2755" href="#P1"></use><use x="1526" y="3031" href="#P11"></use><use x="1533" y="3183" href="#P5"></use><use x="1517" y="3384" href="#P10"></use><use x="1580" y="3445" href="#P11"></use><use x="1458" y="3719" href="#P0"></use><use x="1507" y="3965" href="#P9"></use><use x="1527" y="3988" href="#P1"></use><use x="1433" y="4253" href="#P3"></use><use x="1538" y="4515" href="#P7"></use><use x="1474" y="4604" href="#P6"></use><use x="1495" y="4857" href="#P4"></use><use x="1526" y="5036" href="#P8"></use><use x="1546" y="5085" href="#P4"></use><use x="1763" y="-216" href="#P8"></use><use x="1668" y="63" href="#P10"></use><use x="1646" y="194" href="#P9"></use><use x="1617" y="337" href="#P1"></use><use x="1757" y="571" href="#P5"></use><use x="1740" y="731" href="#P9"></use><use x="1587" y="1031" href="#P5"></use><use x="1626" y="1195" href="#P2"></use><use x="1723" y="1298" href="#P10"></use><use x="1723" y="1574" href="#P12"></use><use x="1670" y="1607" href="#P11"></use><use x="1601" y="1832" href="#P1"></use><use x="1711" y="2089" href="#P6"></use><use x="1640" y="2194" href="#P6"></use><use x="1705" y="2468" href="#P7"></use><use x="1716" y="2555" href="#P2"></use><use x="1742" y="2753" href="#P0"></use><use x="1742" y="3008" href="#P9"></use><use x="1615" y="3069" href="#P0"></use><use x="1700" y="3249" href="#P0"></use><use x="1733" y="3482" href="#P12"></use><use x="1733" y="3693" href="#P1"></use><use x="1611" y="3888" href="#P8"></use><use x="1643" y="4056" href="#P5"></use><use x="1753" y="4174" href="#P5"></use><use x="1765" y="4506" href="#P6"></use><use x="1631" y="4669" href="#P3"></use><use x="1628" y="4727" href="#P0"></use><use x="1632" y="4997" href="#P0"></use><use x="1608" y="5166" href="#P6"></use><use x="1923" y="-80" href="#P7"></use><use x="1906" y="-49" href="#P5"></use><use x="1880" y="218" href="#P1"></use><use x="1886" y="449" href="#P10"></use><use x="1862" y="571" href="#P9"></use><use x="1776" y="703" href="#P5"></use><use x="1922" y="1032" href="#P2"></use><use x="1930" y="1156" href="#P11"></use><use x="1834" y="1216" href="#P6"></use><use x="1923" y="1433" href="#P4"></use><use x="1879" y="1651" href="#P9"></use><use x="1826" y="1881" href="#P3"></use><use x="1869" y="2029" href="#P7"></use><use x="1888" y="2274" href="#P4"></use><use x="1906" y="2493" href="#P2"></use><use x="1832" y="2593" href="#P0"></use><use x="1881" y="2719" href="#P1"></use><use x="1822" y="2976" href="#P6"></use><use x="1950" y="3099" href="#P0"></use><use x="1891" y="3335" href="#P13"></use><use x="1844" y="3584" href="#P0"></use><use x="1903" y="3783" href="#P12"></use><use x="1920" y="3944" href="#P3"></use><use x="1898" y="4074" href="#P7"></use><use x="1866" y="4224" href="#P12"></use><use x="1788" y="4455" href="#P0"></use><use x="1945" y="4535" href="#P11"></use><use x="1794" y="4753" href="#P8"></use><use x="1871" y="4947" href="#P7"></use><use x="1915" y="5224" href="#P5"></use><use x="1971" y="-163" href="#P1"></use><use x="2026" y="-51" href="#P1"></use><use x="1974" y="296" href="#P12"></use><use x="2057" y="334" href="#P7"></use><use x="2104" y="483" href="#P8"></use><use x="2042" y="804" href="#P5"></use><use x="2095" y="914" href="#P9"></use><use x="1972" y="1148" href="#P11"></use><use x="2070" y="1379" href="#P1"></use><use x="2128" y="1551" href="#P6"></use><use x="2056" y="1624" href="#P0"></use><use x="2031" y="1779" href="#P6"></use><use x="2027" y="2080" href="#P13"></use><use x="1970" y="2220" href="#P4"></use><use x="2061" y="2346" href="#P13"></use><use x="2035" y="2534" href="#P1"></use><use x="2037" y="2787" href="#P13"></use><use x="1973" y="3046" href="#P13"></use><use x="1964" y="3164" href="#P0"></use><use x="1973" y="3238" href="#P2"></use><use x="1997" y="3523" href="#P11"></use><use x="2092" y="3720" href="#P1"></use><use x="2004" y="3918" href="#P10"></use><use x="2111" y="4005" href="#P13"></use><use x="2089" y="4199" href="#P12"></use><use x="1958" y="4371" href="#P0"></use><use x="1977" y="4582" href="#P5"></use><use x="2061" y="4854" href="#P12"></use><use x="2085" y="4973" href="#P9"></use><use x="2005" y="5081" href="#P0"></use><use x="2207" y="-165" href="#P8"></use><use x="2241" y="34" href="#P11"></use><use x="2157" y="170" href="#P1"></use><use x="2295" y="386" href="#P12"></use><use x="2247" y="539" href="#P6"></use><use x="2232" y="756" href="#P10"></use><use x="2192" y="983" href="#P12"></use><use x="2231" y="1111" href="#P3"></use><use x="2196" y="1340" href="#P3"></use><use x="2237" y="1494" href="#P13"></use><use x="2304" y="1661" href="#P0"></use><use x="2306" y="1933" href="#P10"></use><use x="2211" y="2002" href="#P0"></use><use x="2168" y="2195" href="#P1"></use><use x="2317" y="2353" href="#P0"></use><use x="2298" y="2603" href="#P1"></use><use x="2238" y="2748" href="#P8"></use><use x="2251" y="2872" href="#P6"></use><use x="2232" y="3141" href="#P9"></use><use x="2154" y="3248" href="#P10"></use><use x="2140" y="3470" href="#P9"></use><use x="2247" y="3619" href="#P11"></use><use x="2188" y="3881" href="#P7"></use><use x="2250" y="3990" href="#P2"></use><use x="2134" y="4159" href="#P7"></use><use x="2315" y="4360" href="#P4"></use><use x="2277" y="4646" href="#P2"></use><use x="2314" y="4745" href="#P7"></use><use x="2232" y="4913" href="#P10"></use><use x="2307" y="5206" href="#P3"></use><use x="2330" y="-98" href="#P5"></use><use x="2455" y="24" href="#P0"></use><use x="2453" y="274" href="#P8"></use><use x="2403" y="402" href="#P1"></use><use x="2409" y="512" href="#P4"></use><use x="2451" y="808" href="#P12"></use><use x="2398" y="993" href="#P13"></use><use x="2347" y="1091" href="#P0"></use><use x="2406" y="1309" href="#P7"></use><use x="2340" y="1414" href="#P11"></use><use x="2367" y="1638" href="#P11"></use><use x="2321" y="1773" href="#P12"></use><use x="2363" y="2071" href="#P9"></use><use x="2464" y="2185" href="#P2"></use><use x="2343" y="2444" href="#P7"></use><use x="2353" y="2514" href="#P8"></use><use x="2339" y="2850" href="#P5"></use><use x="2399" y="2905" href="#P2"></use><use x="2341" y="3106" href="#P1"></use><use x="2368" y="3392" href="#P9"></use><use x="2449" y="3492" href="#P1"></use><use x="2466" y="3696" href="#P3"></use><use x="2395" y="3800" href="#P11"></use><use x="2364" y="4139" href="#P11"></use><use x="2412" y="4298" href="#P2"></use><use x="2328" y="4484" href="#P2"></use><use x="2463" y="4598" href="#P11"></use><use x="2464" y="4790" href="#P1"></use><use x="2463" y="4916" href="#P12"></use><use x="2490" y="5236" href="#P1"></use><use x="2623" y="-201" href="#P2"></use><use x="2605" y="-60" href="#P0"></use><use x="2667" y="162" href="#P0"></use><use x="2645" y="378" href="#P12"></use><use x="2601" y="520" href="#P10"></use><use x="2520" y="848" href="#P9"></use><use x="2576" y="990" href="#P3"></use><use x="2555" y="1061" href="#P0"></use><use x="2596" y="1231" href="#P10"></use><use x="2591" y="1495" href="#P4"></use><use x="2629" y="1643" href="#P4"></use><use x="2611" y="1935" href="#P4"></use><use x="2555" y="2036" href="#P8"></use><use x="2604" y="2286" href="#P3"></use><use x="2664" y="2429" href="#P5"></use><use x="2506" y="2663" href="#P4"></use><use x="2517" y="2806" href="#P5"></use><use x="2500" y="2974" href="#P12"></use><use x="2519" y="3156" href="#P8"></use><use x="2547" y="3347" href="#P4"></use><use x="2628" y="3469" href="#P13"></use><use x="2519" y="3661" href="#P3"></use><use x="2605" y="3866" href="#P6"></use><use x="2614" y="4136" href="#P7"></use><use x="2627" y="4216" href="#P13"></use><use x="2548" y="4506" href="#P6"></use><use x="2678" y="4663" href="#P0"></use><use x="2592" y="4787" href="#P9"></use><use x="2599" y="5022" href="#P0"></use><use x="2554" y="5236" href="#P3"></use><use x="2762" y="-139" href="#P10"></use><use x="2759" y="110" href="#P5"></use><use x="2805" y="204" href="#P9"></use><use x="2798" y="419" href="#P7"></use><use x="2803" y="635" href="#P11"></use><use x="2693" y="741" href="#P4"></use><use x="2796" y="870" href="#P5"></use><use x="2842" y="1159" href="#P3"></use><use x="2722" y="1325" href="#P9"></use><use x="2818" y="1533" href="#P8"></use><use x="2749" y="1709" href="#P6"></use><use x="2773" y="1931" href="#P10"></use><use x="2791" y="2087" href="#P4"></use><use x="2708" y="2267" href="#P12"></use><use x="2709" y="2392" href="#P6"></use><use x="2798" y="2676" href="#P6"></use><use x="2717" y="2833" href="#P0"></use><use x="2827" y="2940" href="#P10"></use><use x="2846" y="3076" href="#P8"></use><use x="2731" y="3398" href="#P12"></use><use x="2724" y="3536" href="#P5"></use><use x="2722" y="3630" href="#P12"></use><use x="2768" y="3965" href="#P7"></use><use x="2807" y="4010" href="#P3"></use><use x="2813" y="4156" href="#P11"></use><use x="2753" y="4368" href="#P3"></use><use x="2780" y="4670" href="#P1"></use><use x="2741" y="4827" href="#P11"></use><use x="2692" y="5010" href="#P7"></use><use x="2742" y="5232" href="#P13"></use><use x="3009" y="-129" href="#P3"></use><use x="2942" y="41" href="#P13"></use><use x="3021" y="266" href="#P8"></use><use x="3015" y="413" href="#P6"></use><use x="2974" y="640" href="#P9"></use><use x="2991" y="671" href="#P12"></use><use x="3034" y="877" href="#P13"></use><use x="2984" y="1119" href="#P11"></use><use x="2983" y="1311" href="#P5"></use><use x="2961" y="1466" href="#P10"></use><use x="2912" y="1682" href="#P8"></use><use x="2970" y="1926" href="#P1"></use><use x="3001" y="2042" href="#P5"></use><use x="2984" y="2247" href="#P5"></use><use x="3018" y="2421" href="#P1"></use><use x="2981" y="2516" href="#P6"></use><use x="2964" y="2718" href="#P10"></use><use x="2948" y="3043" href="#P10"></use><use x="3042" y="3221" href="#P0"></use><use x="2978" y="3327" href="#P3"></use><use x="2936" y="3599" href="#P13"></use><use x="2996" y="3759" href="#P0"></use><use x="3002" y="3874" href="#P8"></use><use x="2941" y="4020" href="#P5"></use><use x="2974" y="4158" href="#P5"></use><use x="2930" y="4466" href="#P5"></use><use x="3010" y="4584" href="#P12"></use><use x="2921" y="4742" href="#P5"></use><use x="2909" y="4927" href="#P7"></use><use x="2870" y="5095" href="#P8"></use><use x="3127" y="-225" href="#P13"></use><use x="3175" y="-30" href="#P12"></use><use x="3096" y="132" href="#P4"></use><use x="3058" y="455" href="#P7"></use><use x="3062" y="598" href="#P11"></use><use x="3064" y="846" href="#P3"></use><use x="3176" y="850" href="#P1"></use><use x="3164" y="1057" href="#P7"></use><use x="3200" y="1231" href="#P10"></use><use x="3120" y="1569" href="#P3"></use><use x="3159" y="1679" href="#P7"></use><use x="3093" y="1855" href="#P8"></use><use x="3124" y="2103" href="#P5"></use><use x="3148" y="2316" href="#P12"></use><use x="3148" y="2348" href="#P2"></use><use x="3117" y="2645" href="#P5"></use><use x="3212" y="2781" href="#P10"></use><use x="3137" y="2977" href="#P8"></use><use x="3055" y="3097" href="#P8"></use><use x="3142" y="3343" href="#P12"></use><use x="3152" y="3489" href="#P12"></use><use x="3172" y="3765" href="#P12"></use><use x="3195" y="3962" href="#P7"></use><use x="3124" y="4070" href="#P7"></use><use x="3172" y="4304" href="#P10"></use><use x="3131" y="4480" href="#P7"></use><use x="3120" y="4663" href="#P4"></use><use x="3221" y="4773" href="#P1"></use><use x="3073" y="4921" href="#P1"></use><use x="3082" y="5213" href="#P8"></use><use x="3322" y="-137" href="#P0"></use><use x="3351" y="89" href="#P4"></use><use x="3393" y="189" href="#P3"></use><use x="3317" y="459" href="#P2"></use><use x="3254" y="604" href="#P8"></use><use x="3294" y="805" href="#P0"></use><use x="3312" y="857" href="#P12"></use><use x="3272" y="1034" href="#P9"></use><use x="3416" y="1289" href="#P11"></use><use x="3238" y="1502" href="#P1"></use><use x="3319" y="1675" href="#P3"></use><use x="3373" y="1948" href="#P4"></use><use x="3326" y="2123" href="#P2"></use><use x="3320" y="2179" href="#P10"></use><use x="3414" y="2434" href="#P12"></use><use x="3254" y="2637" href="#P2"></use><use x="3249" y="2724" href="#P8"></use><use x="3318" y="2980" href="#P8"></use><use x="3339" y="3211" href="#P0"></use><use x="3351" y="3247" href="#P7"></use><use x="3333" y="3545" href="#P13"></use><use x="3376" y="3691" href="#P4"></use><use x="3405" y="3958" href="#P2"></use><use x="3344" y="3995" href="#P13"></use><use x="3363" y="4270" href="#P1"></use><use x="3346" y="4461" href="#P10"></use><use x="3324" y="4569" href="#P8"></use><use x="3247" y="4865" href="#P4"></use><use x="3332" y="4960" href="#P2"></use><use x="3395" y="5196" href="#P5"></use><use x="3565" y="-220" href="#P5"></use><use x="3460" y="43" href="#P10"></use><use x="3567" y="230" href="#P10"></use><use x="3556" y="422" href="#P6"></use><use x="3505" y="588" href="#P10"></use><use x="3434" y="722" href="#P9"></use><use x="3595" y="923" href="#P8"></use><use x="3587" y="1080" href="#P6"></use><use x="3570" y="1293" href="#P3"></use><use x="3580" y="1446" href="#P12"></use><use x="3547" y="1708" href="#P11"></use><use x="3450" y="1788" href="#P4"></use><use x="3579" y="2067" href="#P3"></use><use x="3526" y="2217" href="#P9"></use><use x="3512" y="2382" href="#P2"></use><use x="3444" y="2568" href="#P1"></use><use x="3574" y="2846" href="#P10"></use><use x="3452" y="3011" href="#P9"></use><use x="3508" y="3085" href="#P5"></use><use x="3584" y="3323" href="#P2"></use><use x="3591" y="3535" href="#P8"></use><use x="3527" y="3715" href="#P13"></use><use x="3450" y="3877" href="#P6"></use><use x="3581" y="4049" href="#P11"></use><use x="3441" y="4232" href="#P12"></use><use x="3479" y="4438" href="#P9"></use><use x="3552" y="4591" href="#P10"></use><use x="3463" y="4880" href="#P4"></use><use x="3473" y="4897" href="#P7"></use><use x="3479" y="5227" href="#P12"></use><use x="3725" y="-138" href="#P3"></use><use x="3657" y="-64" href="#P3"></use><use x="3607" y="251" href="#P6"></use><use x="3632" y="322" href="#P10"></use><use x="3707" y="573" href="#P8"></use><use x="3756" y="773" href="#P5"></use><use x="3698" y="901" href="#P9"></use><use x="3728" y="1209" href="#P3"></use><use x="3709" y="1380" href="#P2"></use><use x="3712" y="1491" href="#P9"></use><use x="3689" y="1632" href="#P8"></use><use x="3703" y="1924" href="#P5"></use><use x="3691" y="2042" href="#P2"></use><use x="3717" y="2188" href="#P0"></use><use x="3705" y="2448" href="#P8"></use><use x="3720" y="2627" href="#P11"></use><use x="3616" y="2809" href="#P6"></use><use x="3664" y="3038" href="#P2"></use><use x="3682" y="3061" href="#P13"></use><use x="3602" y="3361" href="#P2"></use><use x="3758" y="3446" href="#P3"></use><use x="3752" y="3618" href="#P7"></use><use x="3665" y="3821" href="#P11"></use><use x="3619" y="3994" href="#P7"></use><use x="3733" y="4217" href="#P3"></use><use x="3754" y="4376" href="#P12"></use><use x="3766" y="4655" href="#P7"></use><use x="3603" y="4755" href="#P13"></use><use x="3769" y="4892" href="#P12"></use><use x="3607" y="5130" href="#P1"></use><use x="3796" y="-145" href="#P13"></use><use x="3783" y="91" href="#P0"></use><use x="3939" y="255" href="#P8"></use><use x="3928" y="349" href="#P7"></use><use x="3966" y="489" href="#P5"></use><use x="3852" y="721" href="#P11"></use><use x="3966" y="940" href="#P8"></use><use x="3964" y="1097" href="#P12"></use><use x="3803" y="1336" href="#P2"></use><use x="3787" y="1583" href="#P10"></use><use x="3794" y="1660" href="#P13"></use><use x="3791" y="1831" href="#P0"></use><use x="3829" y="2054" href="#P5"></use><use x="3853" y="2170" href="#P5"></use><use x="3838" y="2376" href="#P8"></use><use x="3960" y="2529" href="#P6"></use><use x="3794" y="2781" href="#P2"></use><use x="3923" y="2903" href="#P12"></use><use x="3932" y="3120" href="#P4"></use><use x="3833" y="3345" href="#P2"></use><use x="3878" y="3495" href="#P13"></use><use x="3853" y="3704" href="#P13"></use><use x="3910" y="3949" href="#P11"></use><use x="3838" y="4012" href="#P8"></use><use x="3897" y="4194" href="#P7"></use><use x="3864" y="4419" href="#P1"></use><use x="3899" y="4602" href="#P7"></use><use x="3787" y="4824" href="#P11"></use><use x="3897" y="5007" href="#P1"></use><use x="3860" y="5194" href="#P13"></use><use x="4021" y="-243" href="#P2"></use><use x="3968" y="90" href="#P2"></use><use x="4083" y="156" href="#P1"></use><use x="3998" y="456" href="#P1"></use><use x="4052" y="490" href="#P1"></use><use x="4006" y="722" href="#P4"></use><use x="3966" y="996" href="#P2"></use><use x="4059" y="1045" href="#P9"></use><use x="3980" y="1304" href="#P10"></use><use x="4036" y="1472" href="#P3"></use><use x="4126" y="1726" href="#P3"></use><use x="4089" y="1804" href="#P6"></use><use x="4148" y="2048" href="#P0"></use><use x="4017" y="2254" href="#P8"></use><use x="4059" y="2425" href="#P10"></use><use x="4070" y="2526" href="#P2"></use><use x="3969" y="2836" href="#P1"></use><use x="4028" y="2995" href="#P4"></use><use x="3975" y="3074" href="#P5"></use><use x="4125" y="3264" href="#P4"></use><use x="4099" y="3574" href="#P11"></use><use x="4053" y="3756" href="#P5"></use><use x="4027" y="3815" href="#P9"></use><use x="4121" y="4107" href="#P6"></use><use x="4036" y="4325" href="#P7"></use><use x="4051" y="4334" href="#P10"></use><use x="4054" y="4641" href="#P8"></use><use x="4088" y="4789" href="#P11"></use><use x="4108" y="4977" href="#P11"></use><use x="4136" y="5227" href="#P0"></use><use x="4276" y="-126" href="#P4"></use><use x="4267" y="49" href="#P2"></use><use x="4203" y="234" href="#P8"></use><use x="4278" y="405" href="#P13"></use><use x="4224" y="634" href="#P5"></use><use x="4152" y="793" href="#P8"></use><use x="4170" y="952" href="#P5"></use><use x="4166" y="1051" href="#P10"></use><use x="4298" y="1282" href="#P9"></use><use x="4311" y="1556" href="#P11"></use><use x="4296" y="1605" href="#P10"></use><use x="4175" y="1806" href="#P10"></use><use x="4237" y="2002" href="#P7"></use><use x="4278" y="2255" href="#P3"></use><use x="4163" y="2491" href="#P1"></use><use x="4203" y="2608" href="#P3"></use><use x="4178" y="2843" href="#P8"></use><use x="4324" y="2943" href="#P0"></use><use x="4279" y="3106" href="#P13"></use><use x="4196" y="3364" href="#P13"></use><use x="4197" y="3500" href="#P4"></use><use x="4197" y="3758" href="#P1"></use><use x="4159" y="3794" href="#P4"></use><use x="4192" y="4136" href="#P8"></use><use x="4295" y="4286" href="#P4"></use><use x="4229" y="4484" href="#P11"></use><use x="4289" y="4644" href="#P5"></use><use x="4204" y="4768" href="#P3"></use><use x="4206" y="5007" href="#P2"></use><use x="4312" y="5156" href="#P6"></use><use x="4486" y="-141" href="#P6"></use><use x="4494" y="56" href="#P11"></use><use x="4428" y="153" href="#P11"></use><use x="4382" y="326" href="#P9"></use><use x="4461" y="633" href="#P2"></use><use x="4476" y="750" href="#P13"></use><use x="4382" y="897" href="#P13"></use><use x="4392" y="1048" href="#P11"></use><use x="4481" y="1302" href="#P6"></use><use x="4488" y="1577" href="#P9"></use><use x="4483" y="1694" href="#P10"></use><use x="4355" y="1840" href="#P9"></use><use x="4396" y="2010" href="#P0"></use><use x="4338" y="2280" href="#P2"></use><use x="4488" y="2321" href="#P0"></use><use x="4432" y="2643" href="#P5"></use><use x="4431" y="2735" href="#P7"></use><use x="4453" y="3012" href="#P6"></use><use x="4459" y="3155" href="#P5"></use><use x="4469" y="3391" href="#P9"></use><use x="4430" y="3477" href="#P8"></use><use x="4419" y="3724" href="#P10"></use><use x="4370" y="3869" href="#P7"></use><use x="4407" y="4121" href="#P11"></use><use x="4401" y="4212" href="#P8"></use><use x="4496" y="4462" href="#P1"></use><use x="4481" y="4582" href="#P4"></use><use x="4339" y="4804" href="#P5"></use><use x="4490" y="4894" href="#P9"></use><use x="4355" y="5125" href="#P12"></use><use x="4582" y="-170" href="#P4"></use><use x="4518" y="56" href="#P7"></use><use x="4546" y="164" href="#P10"></use><use x="4587" y="456" href="#P7"></use><use x="4680" y="512" href="#P3"></use><use x="4603" y="667" href="#P3"></use><use x="4688" y="912" href="#P11"></use><use x="4628" y="1081" href="#P3"></use><use x="4611" y="1292" href="#P5"></use><use x="4631" y="1567" href="#P5"></use><use x="4555" y="1738" href="#P10"></use><use x="4543" y="1919" href="#P10"></use><use x="4538" y="2098" href="#P10"></use><use x="4677" y="2212" href="#P11"></use><use x="4612" y="2393" href="#P5"></use><use x="4640" y="2681" href="#P3"></use><use x="4587" y="2733" href="#P1"></use><use x="4601" y="2871" href="#P0"></use><use x="4626" y="3050" href="#P2"></use><use x="4643" y="3327" href="#P7"></use><use x="4648" y="3579" href="#P8"></use><use x="4625" y="3634" href="#P11"></use><use x="4524" y="3801" href="#P12"></use><use x="4548" y="4059" href="#P3"></use><use x="4568" y="4256" href="#P8"></use><use x="4603" y="4416" href="#P0"></use><use x="4663" y="4669" href="#P5"></use><use x="4554" y="4752" href="#P4"></use><use x="4698" y="4899" href="#P5"></use><use x="4638" y="5106" href="#P12"></use><use x="4884" y="-121" href="#P5"></use><use x="4729" y="-36" href="#P2"></use><use x="4772" y="283" href="#P0"></use><use x="4863" y="398" href="#P0"></use><use x="4733" y="621" href="#P5"></use><use x="4855" y="753" href="#P2"></use><use x="4728" y="1004" href="#P5"></use><use x="4718" y="1080" href="#P4"></use><use x="4747" y="1350" href="#P0"></use><use x="4848" y="1469" href="#P13"></use><use x="4782" y="1615" href="#P9"></use><use x="4839" y="1787" href="#P5"></use><use x="4715" y="2019" href="#P3"></use><use x="4742" y="2135" href="#P12"></use><use x="4745" y="2418" href="#P9"></use><use x="4774" y="2559" href="#P9"></use><use x="4870" y="2783" href="#P7"></use><use x="4834" y="2950" href="#P5"></use><use x="4748" y="3171" href="#P10"></use><use x="4879" y="3282" href="#P5"></use><use x="4846" y="3495" href="#P1"></use><use x="4821" y="3700" href="#P4"></use><use x="4734" y="3864" href="#P11"></use><use x="4821" y="3982" href="#P1"></use><use x="4728" y="4179" href="#P0"></use><use x="4859" y="4425" href="#P11"></use><use x="4754" y="4648" href="#P11"></use><use x="4837" y="4871" href="#P5"></use><use x="4818" y="4991" href="#P10"></use><use x="4803" y="5098" href="#P13"></use><use x="5040" y="-203" href="#P11"></use><use x="4952" y="20" href="#P2"></use><use x="4973" y="224" href="#P3"></use><use x="5012" y="346" href="#P6"></use><use x="4895" y="558" href="#P8"></use><use x="5052" y="847" href="#P2"></use><use x="4972" y="902" href="#P5"></use><use x="5057" y="1191" href="#P2"></use><use x="4979" y="1258" href="#P2"></use><use x="5042" y="1564" href="#P7"></use><use x="5060" y="1638" href="#P13"></use><use x="4952" y="1789" href="#P5"></use><use x="4927" y="2075" href="#P7"></use><use x="4903" y="2172" href="#P1"></use><use x="5048" y="2399" href="#P13"></use><use x="4950" y="2611" href="#P8"></use><use x="5047" y="2865" href="#P10"></use><use x="5044" y="2923" href="#P12"></use><use x="4996" y="3064" href="#P8"></use><use x="4962" y="3273" href="#P4"></use><use x="5035" y="3493" href="#P3"></use><use x="5004" y="3709" href="#P4"></use><use x="5062" y="3862" href="#P3"></use><use x="5061" y="4108" href="#P13"></use><use x="5056" y="4242" href="#P9"></use><use x="4909" y="4493" href="#P12"></use><use x="5062" y="4596" href="#P5"></use><use x="5057" y="4727" href="#P7"></use><use x="4941" y="5029" href="#P11"></use><use x="5010" y="5229" href="#P2"></use><use x="5177" y="-134" href="#P9"></use><use x="5225" y="26" href="#P8"></use><use x="5161" y="295" href="#P10"></use><use x="5133" y="448" href="#P11"></use><use x="5132" y="514" href="#P2"></use><use x="5223" y="802" href="#P7"></use><use x="5115" y="884" href="#P10"></use><use x="5136" y="1042" href="#P13"></use><use x="5174" y="1288" href="#P3"></use><use x="5210" y="1579" href="#P2"></use><use x="5181" y="1765" href="#P8"></use><use x="5175" y="1900" href="#P8"></use><use x="5155" y="2014" href="#P8"></use><use x="5187" y="2255" href="#P0"></use><use x="5124" y="2441" href="#P12"></use><use x="5214" y="2559" href="#P8"></use><use x="5172" y="2864" href="#P3"></use><use x="5209" y="2976" href="#P10"></use><use x="5204" y="3137" href="#P12"></use><use x="5180" y="3310" href="#P11"></use><use x="5109" y="3463" href="#P6"></use><use x="5122" y="3768" href="#P13"></use><use x="5211" y="3909" href="#P4"></use><use x="5131" y="4076" href="#P8"></use><use x="5105" y="4266" href="#P7"></use><use x="5119" y="4425" href="#P4"></use><use x="5093" y="4548" href="#P1"></use><use x="5138" y="4850" href="#P6"></use><use x="5194" y="4955" href="#P7"></use><use x="5235" y="5108" href="#P9"></use></g></svg>