<svg xlink="http://www.w3.org/1999/xlink" viewBox="0 0 5000 5000" xmlns="http://www.w3.org/2000/svg" style="transform: scale(1);"><defs><filter id="goo"><feGaussianBlur in="SourceGraphic" stdDeviation="0" result="blur"></feGaussianBlur><feColorMatrix in="blur" type="matrix" values="1 0 0 0 0 0 1 0 0 0 0 0 1 0 0 0 0 0 19 -9" result="good"></feColorMatrix><feComposite in="SourceGraphic" in2="goo" operator="atop"></feComposite></filter><path d="M233,264Q220,264 228,254L269,238C274,249 271,260 264,267C252,262 246,261 233,264z" id="P0"></path><path d="M265,246L257,264L238,260L236,243L265,246z" id="P1"></path><path d="M226,232C248,233 261,237 280,248L261,278C246,282 231,276 222,261C234,251 235,246 226,232z" id="P2"></path><path d="M256,258L242,255L245,241L259,254L256,258z" id="P3"></path><path d="M285,243C286,267 269,285 248,286Q218,294 216,261C233,239 247,230 276,225C266,240 267,243 285,243z" id="P4"></path><path d="M235,263L237,235L269,243L247,270L235,263z" id="P5"></path><path d="M261,270C248,275 235,270 228,257C226,245 231,234 240,229Q254,216 266,233L261,270z" id="P6"></path><path d="M253,268L233,257L241,234L268,250L253,268z" id="P7"></path><path d="M280,231Q300,270 261,284C241,268 231,257 217,235C225,220 240,213 255,214C266,216 276,222 280,231z" id="P8"></path><path d="M260,262L246,265L248,234L252,234L260,262z" id="P9"></path></defs><rect id="RECT" width="5000" height="5000" fill="#181A1B" data-darkreader-inline-fill="" style="--darkreader-inline-fill:#2a2e2f;"></rect><g id="group" fill="#FFD700" filter="" opacity="0.37" data-darkreader-inline-fill="" style="--darkreader-inline-fill:#b6a33d;"><use x="-243" y="-309" href="#P8"></use><use x="-439" y="55" href="#P8"></use><use x="-538" y="133" href="#P7"></use><use x="-99" y="1026" href="#P0"></use><use x="-166" y="1100" href="#P6"></use><use x="-284" y="1441" href="#P4"></use><use x="-361" y="1715" href="#P4"></use><use x="-366" y="2258" href="#P7"></use><use x="-371" y="2651" href="#P4"></use><use x="-423" y="3013" href="#P0"></use><use x="-353" y="3341" href="#P1"></use><use x="-174" y="3840" href="#P4"></use><use x="-119" y="3942" href="#P7"></use><use x="-632" y="4549" href="#P1"></use><use x="-559" y="4993" href="#P8"></use><use x="-323" y="5124" href="#P5"></use><use x="-327" y="5333" href="#P4"></use><use x="45" y="-463" href="#P5"></use><use x="-168" y="-89" href="#P4"></use><use x="139" y="642" href="#P3"></use><use x="105" y="801" href="#P0"></use><use x="-23" y="1102" href="#P1"></use><use x="-143" y="1438" href="#P4"></use><use x="-213" y="1604" href="#P0"></use><use x="-284" y="2199" href="#P2"></use><use x="-213" y="2740" href="#P1"></use><use x="-305" y="2956" href="#P9"></use><use x="-213" y="3495" href="#P5"></use><use x="-15" y="3871" href="#P1"></use><use x="63" y="4138" href="#P7"></use><use x="239" y="4437" href="#P9"></use><use x="267" y="4495" href="#P6"></use><use x="-52" y="5292" href="#P9"></use><use x="-62" y="5480" href="#P9"></use><use x="41" y="-400" href="#P3"></use><use x="672" y="135" href="#P2"></use><use x="323" y="469" href="#P9"></use><use x="234" y="638" href="#P5"></use><use x="132" y="901" href="#P4"></use><use x="104" y="1191" href="#P3"></use><use x="646" y="1770" href="#P0"></use><use x="546" y="2118" href="#P2"></use><use x="-173" y="2423" href="#P5"></use><use x="578" y="2974" href="#P4"></use><use x="636" y="3225" href="#P2"></use><use x="141" y="3835" href="#P6"></use><use x="234" y="4173" href="#P2"></use><use x="394" y="4571" href="#P0"></use><use x="538" y="4719" href="#P0"></use><use x="147" y="5495" href="#P8"></use><use x="203" y="5657" href="#P0"></use><use x="725" y="-794" href="#P0"></use><use x="802" y="82" href="#P1"></use><use x="690" y="339" href="#P6"></use><use x="520" y="460" href="#P2"></use><use x="466" y="766" href="#P4"></use><use x="787" y="1549" href="#P3"></use><use x="594" y="2011" href="#P0"></use><use x="669" y="2102" href="#P9"></use><use x="711" y="2696" href="#P6"></use><use x="583" y="2904" href="#P3"></use><use x="776" y="3219" href="#P5"></use><use x="861" y="3642" href="#P2"></use><use x="527" y="4308" href="#P8"></use><use x="669" y="4631" href="#P8"></use><use x="702" y="4815" href="#P0"></use><use x="833" y="4959" href="#P7"></use><use x="442" y="5644" href="#P6"></use><use x="1315" y="-252" href="#P0"></use><use x="1094" y="-97" href="#P2"></use><use x="1219" y="42" href="#P8"></use><use x="1156" y="1010" href="#P1"></use><use x="1034" y="1180" href="#P6"></use><use x="1071" y="1255" href="#P3"></use><use x="919" y="1727" href="#P6"></use><use x="790" y="2225" href="#P8"></use><use x="895" y="2802" href="#P9"></use><use x="935" y="2962" href="#P8"></use><use x="877" y="3356" href="#P7"></use><use x="1026" y="3785" href="#P0"></use><use x="1165" y="3991" href="#P5"></use><use x="1035" y="4850" href="#P7"></use><use x="1165" y="4947" href="#P9"></use><use x="1265" y="5141" href="#P3"></use><use x="1059" y="5978" href="#P3"></use><use x="1492" y="-297" href="#P3"></use><use x="1318" y="-64" href="#P2"></use><use x="1694" y="671" href="#P6"></use><use x="1669" y="688" href="#P5"></use><use x="1558" y="996" href="#P6"></use><use x="1479" y="1302" href="#P3"></use><use x="1312" y="1558" href="#P0"></use><use x="1014" y="2293" href="#P8"></use><use x="1556" y="2688" href="#P9"></use><use x="1006" y="2874" href="#P5"></use><use x="1135" y="3611" href="#P0"></use><use x="1238" y="3812" href="#P2"></use><use x="1636" y="4154" href="#P6"></use><use x="1553" y="4263" href="#P8"></use><use x="1376" y="4986" href="#P7"></use><use x="1438" y="5240" href="#P8"></use><use x="1378" y="6048" href="#P6"></use><use x="1752" y="-332" href="#P9"></use><use x="1969" y="-292" href="#P1"></use><use x="1839" y="611" href="#P9"></use><use x="1786" y="656" href="#P3"></use><use x="1624" y="922" href="#P5"></use><use x="1673" y="1023" href="#P6"></use><use x="2070" y="1635" href="#P4"></use><use x="2073" y="2254" href="#P1"></use><use x="2031" y="2547" href="#P7"></use><use x="1672" y="2873" href="#P9"></use><use x="1836" y="3220" href="#P6"></use><use x="1954" y="4086" href="#P2"></use><use x="1806" y="4202" href="#P7"></use><use x="2036" y="4445" href="#P5"></use><use x="1954" y="5204" href="#P8"></use><use x="1930" y="5271" href="#P9"></use><use x="1806" y="5406" href="#P5"></use><use x="2130" y="-416" href="#P4"></use><use x="2198" y="-344" href="#P1"></use><use x="2302" y="-187" href="#P7"></use><use x="2125" y="571" href="#P8"></use><use x="2115" y="859" href="#P2"></use><use x="2205" y="1039" href="#P1"></use><use x="2349" y="1641" href="#P7"></use><use x="2293" y="2332" href="#P1"></use><use x="2179" y="2679" href="#P8"></use><use x="2275" y="2946" href="#P2"></use><use x="2177" y="3445" href="#P3"></use><use x="1996" y="3945" href="#P7"></use><use x="2186" y="4368" href="#P2"></use><use x="2387" y="4403" href="#P2"></use><use x="2206" y="5275" href="#P5"></use><use x="2334" y="5282" href="#P4"></use><use x="2160" y="5470" href="#P3"></use><use x="2784" y="-413" href="#P6"></use><use x="2914" y="-269" href="#P1"></use><use x="2856" y="-157" href="#P1"></use><use x="2689" y="551" href="#P5"></use><use x="2785" y="791" href="#P6"></use><use x="2606" y="1546" href="#P4"></use><use x="2832" y="1703" href="#P7"></use><use x="2663" y="2056" href="#P9"></use><use x="2808" y="2793" href="#P8"></use><use x="2561" y="3302" href="#P4"></use><use x="2792" y="3440" href="#P7"></use><use x="2563" y="4129" href="#P9"></use><use x="2759" y="4379" href="#P4"></use><use x="2812" y="4471" href="#P2"></use><use x="2577" y="5191" href="#P6"></use><use x="2568" y="5314" href="#P7"></use><use x="2836" y="5459" href="#P0"></use><use x="3119" y="-360" href="#P0"></use><use x="3180" y="-249" href="#P1"></use><use x="3078" y="-102" href="#P7"></use><use x="2991" y="691" href="#P7"></use><use x="3333" y="868" href="#P8"></use><use x="3093" y="1691" href="#P0"></use><use x="3283" y="1947" href="#P7"></use><use x="3180" y="2056" href="#P3"></use><use x="2988" y="2466" href="#P7"></use><use x="3223" y="2945" href="#P1"></use><use x="3068" y="3308" href="#P3"></use><use x="3144" y="4140" href="#P4"></use><use x="3093" y="4285" href="#P3"></use><use x="3061" y="4414" href="#P9"></use><use x="3265" y="5160" href="#P7"></use><use x="3100" y="5388" href="#P2"></use><use x="2886" y="5458" href="#P1"></use><use x="3325" y="-360" href="#P7"></use><use x="3387" y="-158" href="#P3"></use><use x="3756" y="107" href="#P9"></use><use x="3521" y="793" href="#P3"></use><use x="3528" y="1014" href="#P7"></use><use x="3804" y="1393" href="#P0"></use><use x="3697" y="1522" href="#P9"></use><use x="3421" y="2115" href="#P3"></use><use x="3432" y="2581" href="#P9"></use><use x="3928" y="2965" href="#P1"></use><use x="3811" y="3661" href="#P8"></use><use x="3774" y="3858" href="#P2"></use><use x="3541" y="4061" href="#P3"></use><use x="3796" y="4861" href="#P9"></use><use x="3656" y="5108" href="#P4"></use><use x="3367" y="5277" href="#P3"></use><use x="3351" y="5358" href="#P3"></use><use x="3794" y="-193" href="#P4"></use><use x="3889" y="-131" href="#P8"></use><use x="3844" y="80" href="#P7"></use><use x="4155" y="355" href="#P6"></use><use x="3869" y="1149" href="#P4"></use><use x="4035" y="1283" href="#P9"></use><use x="4109" y="1678" href="#P9"></use><use x="4224" y="2138" href="#P9"></use><use x="4020" y="2834" href="#P2"></use><use x="4251" y="2896" href="#P2"></use><use x="3909" y="3514" href="#P4"></use><use x="3981" y="3814" href="#P6"></use><use x="3702" y="4073" href="#P7"></use><use x="4139" y="4731" href="#P9"></use><use x="3986" y="4880" href="#P3"></use><use x="3770" y="5148" href="#P4"></use><use x="4016" y="5994" href="#P8"></use><use x="4077" y="-63" href="#P1"></use><use x="4304" y="131" href="#P1"></use><use x="4260" y="189" href="#P6"></use><use x="4288" y="449" href="#P6"></use><use x="4016" y="1216" href="#P7"></use><use x="4183" y="1428" href="#P9"></use><use x="4277" y="1749" href="#P3"></use><use x="4447" y="2318" href="#P4"></use><use x="4445" y="2437" href="#P1"></use><use x="4395" y="2947" href="#P2"></use><use x="4240" y="3294" href="#P3"></use><use x="4085" y="3710" href="#P1"></use><use x="4433" y="4468" href="#P4"></use><use x="4268" y="4690" href="#P9"></use><use x="4113" y="4954" href="#P1"></use><use x="3991" y="5077" href="#P3"></use><use x="4509" y="5726" href="#P3"></use><use x="4549" y="-706" href="#P1"></use><use x="4939" y="-297" href="#P8"></use><use x="4666" y="496" href="#P0"></use><use x="4654" y="704" href="#P3"></use><use x="4933" y="991" href="#P8"></use><use x="5016" y="1219" href="#P4"></use><use x="5013" y="1646" href="#P3"></use><use x="4445" y="2100" href="#P3"></use><use x="5153" y="2637" href="#P5"></use><use x="5063" y="3210" href="#P0"></use><use x="5051" y="3301" href="#P4"></use><use x="5007" y="3720" href="#P0"></use><use x="4731" y="4148" href="#P0"></use><use x="4597" y="4581" href="#P8"></use><use x="4357" y="4844" href="#P6"></use><use x="4317" y="4880" href="#P4"></use><use x="4676" y="5767" href="#P8"></use><use x="5162" y="-384" href="#P4"></use><use x="5073" y="-240" href="#P8"></use><use x="4842" y="614" href="#P3"></use><use x="5007" y="886" href="#P6"></use><use x="5040" y="953" href="#P8"></use><use x="5106" y="1461" href="#P3"></use><use x="5146" y="1779" href="#P3"></use><use x="5297" y="2391" href="#P5"></use><use x="5342" y="2628" href="#P2"></use><use x="5197" y="2844" href="#P9"></use><use x="5155" y="3337" href="#P4"></use><use x="5117" y="3813" href="#P7"></use><use x="5116" y="3922" href="#P2"></use><use x="4857" y="4323" href="#P5"></use><use x="5157" y="5176" href="#P4"></use><use x="5137" y="5363" href="#P7"></use><use x="4919" y="5564" href="#P2"></use><use x="5171" y="-403" href="#P0"></use><use x="5478" y="30" href="#P4"></use><use x="5536" y="240" href="#P5"></use><use x="5722" y="628" href="#P2"></use><use x="5173" y="1166" href="#P8"></use><use x="5369" y="1653" href="#P5"></use><use x="5356" y="1702" href="#P3"></use><use x="5331" y="2061" href="#P1"></use><use x="5444" y="2744" href="#P9"></use><use x="5443" y="3015" href="#P6"></use><use x="5418" y="3144" href="#P5"></use><use x="5238" y="3750" href="#P1"></use><use x="5745" y="4356" href="#P9"></use><use x="5567" y="4726" href="#P5"></use><use x="5455" y="4910" href="#P7"></use><use x="5334" y="5228" href="#P4"></use><use x="5223" y="5435" href="#P2"></use></g></svg>