<svg xlink="http://www.w3.org/1999/xlink" viewBox="0 0 5000 5000" xmlns="http://www.w3.org/2000/svg" style="transform: scale(1);"><defs><filter id="goo"><feGaussianBlur in="SourceGraphic" stdDeviation="23.95" result="blur"></feGaussianBlur><feColorMatrix in="blur" type="matrix" values="1 0 0 0 0 0 1 0 0 0 0 0 1 0 0 0 0 0 19 -9" result="good"></feColorMatrix><feComposite in="SourceGraphic" in2="goo" operator="atop"></feComposite></filter><path d="M269,245C270,247 270,250 270,253Q254,280 231,257L231,244C246,239 255,240 269,245z" id="P0"></path><path d="M262,248L252,262L241,258L239,244L262,248z" id="P1"></path><path d="M231,230C250,219 271,227 278,250C263,258 256,264 248,278Q219,279 222,250C236,246 237,243 231,230z" id="P2"></path><path d="M239,233L270,251L262,266L235,263L239,233z" id="P3"></path><path d="M216,259Q199,237 223,228C249,230 264,236 285,250L265,282L216,259z" id="P4"></path><path d="M261,252L241,256L242,242L261,247L261,252z" id="P5"></path><path d="M236,265C228,253 231,238 243,231C253,229 263,233 268,240C272,250 269,260 260,268C251,271 242,270 236,265z" id="P6"></path><path d="M237,262L236,239L267,257L250,268L237,262z" id="P7"></path><path d="M245,271C236,269 230,262 229,255Q227,226 254,228C268,233 274,247 269,261C257,260 252,262 245,271z" id="P8"></path><path d="M239,256L238,247L255,239L256,261L239,256z" id="P9"></path><path d="M221,271Q196,243 227,222L273,222C285,234 289,250 282,267C257,269 244,269 221,271z" id="P10"></path><path d="M243,260L238,248L251,238L262,252L243,260z" id="P11"></path></defs><rect id="RECT" width="5000" height="5000" fill="#111" data-darkreader-inline-fill="" style="--darkreader-inline-fill:#242729;"></rect><g id="group" fill="#FFD700" filter="url(#goo)" opacity="0.19" data-darkreader-inline-fill="" style="--darkreader-inline-fill:#b6a33d;"><use x="-97" y="-243" href="#P0"></use><use x="-63" y="98" href="#P1"></use><use x="-165" y="347" href="#P0"></use><use x="-213" y="627" href="#P6"></use><use x="-250" y="764" href="#P1"></use><use x="-208" y="1124" href="#P11"></use><use x="-189" y="1227" href="#P1"></use><use x="-85" y="1555" href="#P2"></use><use x="-147" y="1631" href="#P10"></use><use x="-96" y="1843" href="#P2"></use><use x="-32" y="2210" href="#P8"></use><use x="-59" y="2320" href="#P9"></use><use x="-180" y="2673" href="#P9"></use><use x="-183" y="2830" href="#P3"></use><use x="-77" y="2993" href="#P0"></use><use x="-110" y="3188" href="#P7"></use><use x="-28" y="3443" href="#P3"></use><use x="-157" y="3748" href="#P7"></use><use x="-84" y="4102" href="#P6"></use><use x="-185" y="4288" href="#P6"></use><use x="-169" y="4496" href="#P1"></use><use x="-59" y="4619" href="#P10"></use><use x="-234" y="4804" href="#P2"></use><use x="-105" y="5050" href="#P2"></use><use x="53" y="-80" href="#P7"></use><use x="126" y="9" href="#P2"></use><use x="21" y="301" href="#P5"></use><use x="50" y="460" href="#P10"></use><use x="15" y="879" href="#P5"></use><use x="-9" y="1048" href="#P8"></use><use x="190" y="1332" href="#P5"></use><use x="192" y="1501" href="#P8"></use><use x="79" y="1598" href="#P11"></use><use x="20" y="1980" href="#P2"></use><use x="46" y="2079" href="#P5"></use><use x="17" y="2306" href="#P8"></use><use x="-13" y="2535" href="#P4"></use><use x="69" y="2886" href="#P8"></use><use x="59" y="2960" href="#P7"></use><use x="-17" y="3346" href="#P8"></use><use x="80" y="3491" href="#P3"></use><use x="-9" y="3807" href="#P6"></use><use x="174" y="3897" href="#P9"></use><use x="-4" y="4180" href="#P4"></use><use x="190" y="4384" href="#P10"></use><use x="176" y="4732" href="#P7"></use><use x="38" y="4940" href="#P9"></use><use x="6" y="5162" href="#P5"></use><use x="260" y="-47" href="#P7"></use><use x="400" y="5" href="#P6"></use><use x="212" y="288" href="#P6"></use><use x="221" y="628" href="#P6"></use><use x="376" y="703" href="#P5"></use><use x="292" y="898" href="#P5"></use><use x="245" y="1243" href="#P0"></use><use x="431" y="1426" href="#P0"></use><use x="418" y="1639" href="#P1"></use><use x="278" y="1959" href="#P4"></use><use x="269" y="2208" href="#P8"></use><use x="391" y="2470" href="#P4"></use><use x="339" y="2621" href="#P8"></use><use x="355" y="2921" href="#P6"></use><use x="402" y="2969" href="#P0"></use><use x="314" y="3302" href="#P4"></use><use x="234" y="3425" href="#P11"></use><use x="320" y="3786" href="#P3"></use><use x="297" y="3961" href="#P7"></use><use x="307" y="4271" href="#P3"></use><use x="303" y="4349" href="#P0"></use><use x="250" y="4596" href="#P6"></use><use x="334" y="4852" href="#P0"></use><use x="256" y="5180" href="#P11"></use><use x="541" y="-37" href="#P6"></use><use x="504" y="41" href="#P1"></use><use x="560" y="234" href="#P3"></use><use x="474" y="603" href="#P9"></use><use x="459" y="705" href="#P0"></use><use x="542" y="1101" href="#P8"></use><use x="549" y="1186" href="#P8"></use><use x="598" y="1511" href="#P3"></use><use x="482" y="1594" href="#P0"></use><use x="641" y="1864" href="#P5"></use><use x="460" y="2068" href="#P1"></use><use x="596" y="2314" href="#P2"></use><use x="663" y="2586" href="#P8"></use><use x="590" y="2887" href="#P7"></use><use x="532" y="3177" href="#P7"></use><use x="602" y="3208" href="#P9"></use><use x="514" y="3558" href="#P8"></use><use x="534" y="3861" href="#P6"></use><use x="545" y="3993" href="#P3"></use><use x="604" y="4270" href="#P5"></use><use x="664" y="4486" href="#P9"></use><use x="534" y="4615" href="#P0"></use><use x="510" y="4919" href="#P2"></use><use x="530" y="5074" href="#P4"></use><use x="852" y="-88" href="#P11"></use><use x="837" y="203" href="#P4"></use><use x="803" y="433" href="#P8"></use><use x="736" y="459" href="#P8"></use><use x="816" y="861" href="#P5"></use><use x="890" y="898" href="#P3"></use><use x="864" y="1201" href="#P8"></use><use x="673" y="1529" href="#P5"></use><use x="883" y="1583" href="#P4"></use><use x="863" y="1886" href="#P3"></use><use x="714" y="2130" href="#P0"></use><use x="762" y="2425" href="#P1"></use><use x="716" y="2695" href="#P6"></use><use x="685" y="2757" href="#P2"></use><use x="776" y="3110" href="#P0"></use><use x="858" y="3286" href="#P8"></use><use x="709" y="3510" href="#P8"></use><use x="763" y="3728" href="#P5"></use><use x="740" y="3891" href="#P1"></use><use x="682" y="4271" href="#P9"></use><use x="882" y="4552" href="#P6"></use><use x="852" y="4736" href="#P0"></use><use x="769" y="4891" href="#P7"></use><use x="840" y="5184" href="#P11"></use><use x="951" y="-156" href="#P5"></use><use x="1082" y="129" href="#P3"></use><use x="1121" y="422" href="#P4"></use><use x="986" y="652" href="#P7"></use><use x="1124" y="700" href="#P7"></use><use x="949" y="1100" href="#P9"></use><use x="936" y="1347" href="#P5"></use><use x="1033" y="1394" href="#P6"></use><use x="1084" y="1714" href="#P2"></use><use x="915" y="2030" href="#P2"></use><use x="948" y="2235" href="#P9"></use><use x="974" y="2413" href="#P1"></use><use x="1079" y="2630" href="#P8"></use><use x="1008" y="2809" href="#P6"></use><use x="1056" y="3040" href="#P2"></use><use x="1080" y="3224" href="#P0"></use><use x="1031" y="3611" href="#P6"></use><use x="991" y="3755" href="#P6"></use><use x="1008" y="4052" href="#P6"></use><use x="1091" y="4153" href="#P6"></use><use x="969" y="4556" href="#P11"></use><use x="1049" y="4628" href="#P8"></use><use x="920" y="4876" href="#P1"></use><use x="1099" y="5028" href="#P2"></use><use x="1170" y="-171" href="#P5"></use><use x="1294" y="197" href="#P6"></use><use x="1135" y="364" href="#P2"></use><use x="1235" y="565" href="#P5"></use><use x="1285" y="704" href="#P4"></use><use x="1225" y="921" href="#P7"></use><use x="1293" y="1202" href="#P0"></use><use x="1236" y="1518" href="#P8"></use><use x="1148" y="1810" href="#P11"></use><use x="1145" y="1877" href="#P8"></use><use x="1254" y="2129" href="#P3"></use><use x="1243" y="2403" href="#P10"></use><use x="1190" y="2650" href="#P0"></use><use x="1351" y="2848" href="#P2"></use><use x="1232" y="3003" href="#P6"></use><use x="1171" y="3313" href="#P10"></use><use x="1283" y="3561" href="#P7"></use><use x="1314" y="3815" href="#P9"></use><use x="1219" y="4076" href="#P11"></use><use x="1159" y="4304" href="#P1"></use><use x="1246" y="4499" href="#P3"></use><use x="1271" y="4734" href="#P3"></use><use x="1349" y="4893" href="#P9"></use><use x="1354" y="5184" href="#P1"></use><use x="1377" y="-93" href="#P10"></use><use x="1529" y="187" href="#P1"></use><use x="1495" y="300" href="#P0"></use><use x="1409" y="570" href="#P5"></use><use x="1443" y="850" href="#P8"></use><use x="1411" y="982" href="#P3"></use><use x="1518" y="1354" href="#P10"></use><use x="1396" y="1365" href="#P9"></use><use x="1385" y="1700" href="#P1"></use><use x="1386" y="2008" href="#P10"></use><use x="1567" y="2102" href="#P1"></use><use x="1531" y="2471" href="#P2"></use><use x="1541" y="2592" href="#P7"></use><use x="1364" y="2753" href="#P2"></use><use x="1455" y="3181" href="#P4"></use><use x="1408" y="3360" href="#P2"></use><use x="1373" y="3584" href="#P11"></use><use x="1498" y="3779" href="#P10"></use><use x="1566" y="3994" href="#P7"></use><use x="1424" y="4201" href="#P8"></use><use x="1441" y="4397" href="#P10"></use><use x="1579" y="4786" href="#P9"></use><use x="1541" y="4934" href="#P7"></use><use x="1458" y="5135" href="#P4"></use><use x="1700" y="-34" href="#P2"></use><use x="1614" y="7" href="#P5"></use><use x="1619" y="357" href="#P4"></use><use x="1627" y="659" href="#P8"></use><use x="1689" y="731" href="#P4"></use><use x="1670" y="991" href="#P3"></use><use x="1754" y="1327" href="#P7"></use><use x="1714" y="1451" href="#P0"></use><use x="1792" y="1806" href="#P3"></use><use x="1677" y="1838" href="#P4"></use><use x="1630" y="2128" href="#P3"></use><use x="1585" y="2334" href="#P11"></use><use x="1636" y="2668" href="#P5"></use><use x="1665" y="2927" href="#P7"></use><use x="1690" y="3140" href="#P2"></use><use x="1783" y="3292" href="#P8"></use><use x="1788" y="3634" href="#P2"></use><use x="1605" y="3820" href="#P11"></use><use x="1587" y="4004" href="#P1"></use><use x="1610" y="4124" href="#P11"></use><use x="1618" y="4495" href="#P6"></use><use x="1751" y="4721" href="#P8"></use><use x="1597" y="4927" href="#P8"></use><use x="1796" y="5139" href="#P6"></use><use x="1824" y="-163" href="#P6"></use><use x="1870" y="115" href="#P10"></use><use x="2031" y="383" href="#P5"></use><use x="1948" y="553" href="#P3"></use><use x="1863" y="789" href="#P0"></use><use x="1835" y="1074" href="#P10"></use><use x="1835" y="1198" href="#P8"></use><use x="2016" y="1375" href="#P10"></use><use x="1909" y="1730" href="#P3"></use><use x="1987" y="1815" href="#P11"></use><use x="1923" y="2181" href="#P11"></use><use x="1843" y="2401" href="#P3"></use><use x="1831" y="2724" href="#P1"></use><use x="1886" y="2918" href="#P11"></use><use x="2040" y="2991" href="#P1"></use><use x="2014" y="3417" href="#P0"></use><use x="2001" y="3458" href="#P6"></use><use x="2028" y="3840" href="#P11"></use><use x="1970" y="3976" href="#P1"></use><use x="1981" y="4269" href="#P1"></use><use x="2002" y="4426" href="#P6"></use><use x="1813" y="4791" href="#P7"></use><use x="1915" y="5019" href="#P8"></use><use x="1900" y="5232" href="#P5"></use><use x="2117" y="-44" href="#P2"></use><use x="2138" y="-19" href="#P9"></use><use x="2204" y="316" href="#P4"></use><use x="2125" y="516" href="#P5"></use><use x="2249" y="744" href="#P11"></use><use x="2224" y="920" href="#P4"></use><use x="2237" y="1189" href="#P10"></use><use x="2208" y="1490" href="#P2"></use><use x="2207" y="1762" href="#P5"></use><use x="2071" y="1871" href="#P11"></use><use x="2225" y="2146" href="#P7"></use><use x="2157" y="2405" href="#P1"></use><use x="2160" y="2562" href="#P4"></use><use x="2094" y="2883" href="#P2"></use><use x="2064" y="3148" href="#P3"></use><use x="2110" y="3218" href="#P11"></use><use x="2261" y="3632" href="#P6"></use><use x="2123" y="3838" href="#P6"></use><use x="2160" y="3913" href="#P1"></use><use x="2058" y="4303" href="#P11"></use><use x="2198" y="4471" href="#P11"></use><use x="2229" y="4695" href="#P5"></use><use x="2132" y="4839" href="#P0"></use><use x="2230" y="5204" href="#P6"></use><use x="2325" y="-120" href="#P6"></use><use x="2491" y="207" href="#P3"></use><use x="2413" y="254" href="#P4"></use><use x="2412" y="553" href="#P1"></use><use x="2320" y="809" href="#P7"></use><use x="2422" y="1018" href="#P9"></use><use x="2412" y="1280" href="#P5"></use><use x="2394" y="1397" href="#P2"></use><use x="2416" y="1607" href="#P5"></use><use x="2355" y="2034" href="#P4"></use><use x="2314" y="2081" href="#P7"></use><use x="2432" y="2281" href="#P1"></use><use x="2437" y="2568" href="#P6"></use><use x="2343" y="2922" href="#P3"></use><use x="2357" y="3048" href="#P4"></use><use x="2420" y="3365" href="#P0"></use><use x="2353" y="3470" href="#P7"></use><use x="2399" y="3799" href="#P8"></use><use x="2416" y="3898" href="#P7"></use><use x="2333" y="4137" href="#P4"></use><use x="2399" y="4516" href="#P4"></use><use x="2495" y="4655" href="#P7"></use><use x="2427" y="4810" href="#P0"></use><use x="2300" y="5210" href="#P6"></use><use x="2729" y="-128" href="#P2"></use><use x="2680" y="109" href="#P5"></use><use x="2547" y="416" href="#P7"></use><use x="2689" y="547" href="#P1"></use><use x="2589" y="804" href="#P3"></use><use x="2559" y="959" href="#P0"></use><use x="2626" y="1326" href="#P4"></use><use x="2698" y="1525" href="#P9"></use><use x="2634" y="1674" href="#P4"></use><use x="2574" y="1851" href="#P6"></use><use x="2716" y="2235" href="#P5"></use><use x="2631" y="2274" href="#P1"></use><use x="2579" y="2664" href="#P9"></use><use x="2523" y="2936" href="#P4"></use><use x="2615" y="3102" href="#P5"></use><use x="2712" y="3256" href="#P10"></use><use x="2658" y="3619" href="#P10"></use><use x="2648" y="3764" href="#P8"></use><use x="2553" y="3954" href="#P4"></use><use x="2645" y="4153" href="#P9"></use><use x="2632" y="4471" href="#P2"></use><use x="2635" y="4623" href="#P5"></use><use x="2568" y="5012" href="#P7"></use><use x="2550" y="5137" href="#P9"></use><use x="2840" y="-199" href="#P9"></use><use x="2784" y="23" href="#P9"></use><use x="2923" y="421" href="#P5"></use><use x="2773" y="601" href="#P5"></use><use x="2759" y="890" href="#P8"></use><use x="2865" y="1116" href="#P3"></use><use x="2907" y="1343" href="#P8"></use><use x="2943" y="1380" href="#P6"></use><use x="2861" y="1778" href="#P5"></use><use x="2751" y="1978" href="#P2"></use><use x="2859" y="2053" href="#P11"></use><use x="2761" y="2345" href="#P11"></use><use x="2916" y="2625" href="#P9"></use><use x="2801" y="2865" href="#P0"></use><use x="2758" y="3045" href="#P11"></use><use x="2768" y="3343" href="#P10"></use><use x="2785" y="3571" href="#P1"></use><use x="2915" y="3821" href="#P6"></use><use x="2897" y="4075" href="#P6"></use><use x="2891" y="4195" href="#P9"></use><use x="2875" y="4547" href="#P9"></use><use x="2801" y="4703" href="#P10"></use><use x="2820" y="4889" href="#P5"></use><use x="2878" y="5168" href="#P1"></use><use x="3067" y="-23" href="#P8"></use><use x="2973" y="100" href="#P5"></use><use x="3138" y="342" href="#P7"></use><use x="3171" y="535" href="#P0"></use><use x="3042" y="764" href="#P10"></use><use x="3068" y="1058" href="#P0"></use><use x="2992" y="1217" href="#P2"></use><use x="3067" y="1362" href="#P0"></use><use x="3026" y="1760" href="#P5"></use><use x="3181" y="1888" href="#P10"></use><use x="3150" y="2194" href="#P1"></use><use x="3146" y="2388" href="#P8"></use><use x="3165" y="2711" href="#P2"></use><use x="3023" y="2753" href="#P7"></use><use x="3025" y="3071" href="#P7"></use><use x="3126" y="3275" href="#P9"></use><use x="3145" y="3526" href="#P0"></use><use x="3179" y="3815" href="#P1"></use><use x="2993" y="4068" href="#P10"></use><use x="3104" y="4257" href="#P0"></use><use x="3010" y="4420" href="#P7"></use><use x="2999" y="4759" href="#P1"></use><use x="3017" y="4945" href="#P10"></use><use x="3159" y="5127" href="#P3"></use><use x="3213" y="-147" href="#P1"></use><use x="3341" y="76" href="#P4"></use><use x="3284" y="227" href="#P3"></use><use x="3199" y="489" href="#P1"></use><use x="3382" y="874" href="#P6"></use><use x="3240" y="982" href="#P8"></use><use x="3277" y="1281" href="#P11"></use><use x="3350" y="1512" href="#P10"></use><use x="3293" y="1598" href="#P11"></use><use x="3366" y="1978" href="#P6"></use><use x="3296" y="2224" href="#P11"></use><use x="3190" y="2449" href="#P0"></use><use x="3199" y="2685" href="#P3"></use><use x="3410" y="2878" href="#P1"></use><use x="3346" y="3018" href="#P6"></use><use x="3389" y="3263" href="#P9"></use><use x="3414" y="3604" href="#P4"></use><use x="3292" y="3840" href="#P8"></use><use x="3369" y="3951" href="#P0"></use><use x="3357" y="4131" href="#P6"></use><use x="3342" y="4484" href="#P4"></use><use x="3295" y="4577" href="#P10"></use><use x="3356" y="4917" href="#P5"></use><use x="3207" y="5068" href="#P5"></use><use x="3444" y="-73" href="#P9"></use><use x="3436" y="204" href="#P11"></use><use x="3581" y="416" href="#P0"></use><use x="3421" y="502" href="#P0"></use><use x="3525" y="831" href="#P3"></use><use x="3425" y="896" href="#P4"></use><use x="3550" y="1351" href="#P6"></use><use x="3510" y="1543" href="#P6"></use><use x="3604" y="1726" href="#P11"></use><use x="3582" y="1991" href="#P8"></use><use x="3561" y="2251" href="#P11"></use><use x="3504" y="2342" href="#P6"></use><use x="3547" y="2653" href="#P10"></use><use x="3421" y="2827" href="#P4"></use><use x="3511" y="3131" href="#P10"></use><use x="3533" y="3288" href="#P7"></use><use x="3532" y="3531" href="#P1"></use><use x="3453" y="3793" href="#P11"></use><use x="3612" y="4081" href="#P1"></use><use x="3503" y="4269" href="#P5"></use><use x="3478" y="4552" href="#P9"></use><use x="3584" y="4760" href="#P2"></use><use x="3616" y="4927" href="#P4"></use><use x="3478" y="5093" href="#P11"></use><use x="3839" y="-96" href="#P7"></use><use x="3669" y="36" href="#P1"></use><use x="3873" y="260" href="#P8"></use><use x="3761" y="621" href="#P0"></use><use x="3753" y="758" href="#P5"></use><use x="3808" y="1074" href="#P2"></use><use x="3848" y="1144" href="#P1"></use><use x="3863" y="1387" href="#P10"></use><use x="3777" y="1607" href="#P9"></use><use x="3765" y="1930" href="#P9"></use><use x="3834" y="2100" href="#P10"></use><use x="3872" y="2431" href="#P0"></use><use x="3680" y="2672" href="#P9"></use><use x="3821" y="2798" href="#P6"></use><use x="3852" y="3114" href="#P9"></use><use x="3748" y="3348" href="#P4"></use><use x="3737" y="3524" href="#P8"></use><use x="3698" y="3701" href="#P0"></use><use x="3759" y="4087" href="#P8"></use><use x="3771" y="4282" href="#P2"></use><use x="3871" y="4549" href="#P0"></use><use x="3758" y="4709" href="#P5"></use><use x="3804" y="4879" href="#P8"></use><use x="3680" y="5036" href="#P10"></use><use x="4059" y="-235" href="#P1"></use><use x="4104" y="150" href="#P11"></use><use x="4008" y="222" href="#P2"></use><use x="3988" y="552" href="#P7"></use><use x="3930" y="836" href="#P3"></use><use x="3996" y="988" href="#P8"></use><use x="4004" y="1223" href="#P9"></use><use x="3980" y="1420" href="#P5"></use><use x="4005" y="1698" href="#P8"></use><use x="3951" y="1933" href="#P1"></use><use x="3910" y="2130" href="#P10"></use><use x="4071" y="2360" href="#P1"></use><use x="3917" y="2684" href="#P2"></use><use x="4067" y="2922" href="#P8"></use><use x="3995" y="2994" href="#P7"></use><use x="3904" y="3239" href="#P7"></use><use x="3911" y="3516" href="#P9"></use><use x="3973" y="3667" href="#P0"></use><use x="4080" y="4084" href="#P0"></use><use x="4105" y="4253" href="#P10"></use><use x="3905" y="4412" href="#P10"></use><use x="3987" y="4697" href="#P1"></use><use x="4058" y="5016" href="#P1"></use><use x="3925" y="5154" href="#P10"></use><use x="4240" y="-27" href="#P8"></use><use x="4206" y="2" href="#P10"></use><use x="4251" y="263" href="#P10"></use><use x="4262" y="448" href="#P9"></use><use x="4243" y="672" href="#P5"></use><use x="4226" y="950" href="#P5"></use><use x="4217" y="1253" href="#P3"></use><use x="4334" y="1557" href="#P3"></use><use x="4124" y="1778" href="#P5"></use><use x="4326" y="2006" href="#P2"></use><use x="4317" y="2082" href="#P9"></use><use x="4312" y="2347" href="#P6"></use><use x="4228" y="2566" href="#P3"></use><use x="4104" y="2926" href="#P5"></use><use x="4120" y="2979" href="#P8"></use><use x="4326" y="3254" href="#P1"></use><use x="4324" y="3633" href="#P8"></use><use x="4183" y="3717" href="#P9"></use><use x="4108" y="4045" href="#P5"></use><use x="4227" y="4216" href="#P5"></use><use x="4142" y="4423" href="#P10"></use><use x="4199" y="4719" href="#P2"></use><use x="4166" y="4948" href="#P3"></use><use x="4276" y="5108" href="#P9"></use><use x="4499" y="-26" href="#P4"></use><use x="4495" y="52" href="#P4"></use><use x="4541" y="330" href="#P11"></use><use x="4433" y="618" href="#P2"></use><use x="4559" y="808" href="#P6"></use><use x="4440" y="1068" href="#P6"></use><use x="4501" y="1325" href="#P2"></use><use x="4550" y="1487" href="#P4"></use><use x="4528" y="1665" href="#P8"></use><use x="4558" y="1970" href="#P5"></use><use x="4433" y="2190" href="#P1"></use><use x="4334" y="2368" href="#P0"></use><use x="4407" y="2675" href="#P6"></use><use x="4469" y="2884" href="#P8"></use><use x="4370" y="3114" href="#P7"></use><use x="4405" y="3191" href="#P9"></use><use x="4452" y="3520" href="#P3"></use><use x="4371" y="3651" href="#P4"></use><use x="4458" y="4050" href="#P5"></use><use x="4442" y="4254" href="#P0"></use><use x="4501" y="4484" href="#P4"></use><use x="4401" y="4670" href="#P2"></use><use x="4413" y="4944" href="#P4"></use><use x="4489" y="5098" href="#P10"></use><use x="4694" y="-117" href="#P10"></use><use x="4787" y="9" href="#P10"></use><use x="4761" y="308" href="#P9"></use><use x="4638" y="443" href="#P7"></use><use x="4732" y="816" href="#P11"></use><use x="4586" y="1093" href="#P5"></use><use x="4581" y="1227" href="#P6"></use><use x="4724" y="1583" href="#P4"></use><use x="4763" y="1768" href="#P10"></use><use x="4605" y="1982" href="#P9"></use><use x="4718" y="2252" href="#P11"></use><use x="4723" y="2280" href="#P2"></use><use x="4707" y="2555" href="#P1"></use><use x="4753" y="2926" href="#P6"></use><use x="4612" y="3182" href="#P11"></use><use x="4753" y="3238" href="#P9"></use><use x="4740" y="3468" href="#P2"></use><use x="4649" y="3825" href="#P7"></use><use x="4712" y="4053" href="#P8"></use><use x="4635" y="4133" href="#P0"></use><use x="4726" y="4518" href="#P3"></use><use x="4783" y="4766" href="#P11"></use><use x="4613" y="4809" href="#P3"></use><use x="4637" y="5055" href="#P11"></use><use x="4917" y="-204" href="#P11"></use><use x="4821" y="60" href="#P3"></use><use x="4815" y="309" href="#P1"></use><use x="4966" y="510" href="#P7"></use><use x="4922" y="857" href="#P3"></use><use x="4815" y="1114" href="#P8"></use><use x="4890" y="1190" href="#P2"></use><use x="4904" y="1493" href="#P11"></use><use x="5014" y="1801" href="#P9"></use><use x="4958" y="1993" href="#P10"></use><use x="5012" y="2070" href="#P10"></use><use x="4838" y="2399" href="#P6"></use><use x="4997" y="2691" href="#P2"></use><use x="4826" y="2765" href="#P0"></use><use x="4807" y="3052" href="#P10"></use><use x="4969" y="3290" href="#P1"></use><use x="4985" y="3494" href="#P3"></use><use x="5003" y="3750" href="#P5"></use><use x="4863" y="3944" href="#P11"></use><use x="4810" y="4281" href="#P3"></use><use x="4809" y="4457" href="#P4"></use><use x="4980" y="4620" href="#P3"></use><use x="4922" y="4826" href="#P8"></use><use x="4958" y="5088" href="#P8"></use><use x="5046" y="-161" href="#P5"></use><use x="5118" y="13" href="#P6"></use><use x="5250" y="359" href="#P2"></use><use x="5178" y="550" href="#P5"></use><use x="5204" y="869" href="#P1"></use><use x="5039" y="1011" href="#P0"></use><use x="5121" y="1133" href="#P5"></use><use x="5063" y="1576" href="#P9"></use><use x="5225" y="1729" href="#P0"></use><use x="5181" y="1947" href="#P2"></use><use x="5209" y="2137" href="#P11"></use><use x="5061" y="2289" href="#P1"></use><use x="5121" y="2507" href="#P0"></use><use x="5115" y="2770" href="#P5"></use><use x="5129" y="3181" href="#P9"></use><use x="5145" y="3398" href="#P1"></use><use x="5046" y="3512" href="#P3"></use><use x="5045" y="3854" href="#P10"></use><use x="5176" y="4003" href="#P10"></use><use x="5155" y="4148" href="#P2"></use><use x="5203" y="4466" href="#P7"></use><use x="5037" y="4605" href="#P0"></use><use x="5092" y="4923" href="#P0"></use><use x="5139" y="5123" href="#P7"></use></g></svg>